<svg xmlns="http://www.w3.org/2000/svg" width="18" height="18" viewBox="0 0 18 18"><defs><style>.a{opacity:0;}.b{fill:none;stroke:#66677c;stroke-linecap:round;stroke-linejoin:round;stroke-width:1.3px;}</style></defs><rect class="a" width="18" height="18"/><g transform="translate(-1.01 -2.01)"><path class="b" d="M16,9A7,7,0,1,1,2,9M16,9A7,7,0,0,0,9,2m7,7H14.6M2,9A7,7,0,0,1,9,2M2,9H3.4M9,2V3.4m4.9.7-.7.7m.7,9.1-.7-.7m-9.1.7.7-.7M4.1,4.1l.7.7M9,6.9A3.562,3.562,0,0,0,7.6,9.389c0,2.282,2.8,2.282,2.8,0A3.562,3.562,0,0,0,9,6.9Z" transform="translate(1 2)"/></g></svg>