<svg xmlns="http://www.w3.org/2000/svg" width="18" height="18" viewBox="0 0 18 18"><defs><style>.a{opacity:0;}.b{fill:#66677c;}</style></defs><g transform="translate(-405.23 -101.23)"><rect class="a" width="18" height="18" transform="translate(405.23 101.23)"/><path class="b" d="M93.746,41.776a.654.654,0,1,0,.654.654A.654.654,0,0,0,93.746,41.776Zm0,5.23a.654.654,0,1,0,.654.654A.654.654,0,0,0,93.746,47.006Zm0-2.615a.654.654,0,1,0,.654.654A.654.654,0,0,0,93.746,44.391Zm6.538,2.615H96.361a.654.654,0,1,0,0,1.308h3.923a.654.654,0,1,0,0-1.308Zm0-5.23H96.361a.654.654,0,1,0,0,1.308h3.923a.654.654,0,1,0,0-1.308Zm1.961-3.923H91.785a1.308,1.308,0,0,0-1.308,1.308V50.928a1.308,1.308,0,0,0,1.308,1.308h10.461a1.308,1.308,0,0,0,1.308-1.308V39.161A1.308,1.308,0,0,0,102.245,37.853Zm0,12.422a.654.654,0,0,1-.654.654H92.438a.654.654,0,0,1-.654-.654V39.814a.654.654,0,0,1,.654-.654h9.153a.654.654,0,0,1,.654.654Zm-1.961-5.884H96.361a.654.654,0,1,0,0,1.308h3.923a.654.654,0,1,0,0-1.308Z" transform="translate(317.216 65.187)"/></g></svg>