<svg xmlns="http://www.w3.org/2000/svg" width="18" height="18" viewBox="0 0 18 18"><defs><style>.a{opacity:0;}.b{fill:#66677c;}</style></defs><g transform="translate(-405.23 -101.23)"><rect class="a" width="18" height="18" transform="translate(405.23 101.23)"/><path class="b" d="M70.88,64A6.891,6.891,0,0,1,77.4,68.778,7.072,7.072,0,0,1,75.02,76.59a6.784,6.784,0,0,1-8.036.18l.087.059-.1.01-.049.008-.085.016c-.128.026-.28.066-.456.12l-.279.093q-.223.077-.483.178a.679.679,0,0,1-.719-.145.708.708,0,0,1-.183-.722l.109-.36.048-.165.081-.305q.064-.245.108-.494l.011-.077q.01-.072.015-.129l0-.068-.077-.122A7.053,7.053,0,0,1,64,71.262L64,71A6.941,6.941,0,0,1,70.88,64Zm0,1.4a5.491,5.491,0,0,0-4.853,2.958,5.683,5.683,0,0,0,.273,5.748,1.851,1.851,0,0,1,.085,1.42l.164-.038a1.578,1.578,0,0,1,1.144.083l.072.046a5.427,5.427,0,0,0,6.428-.146A5.657,5.657,0,0,0,76.1,69.223,5.513,5.513,0,0,0,70.88,65.4Z" transform="translate(343.352 39.23)"/><path class="b" d="M262.614,259.305h-2.055v-2.121a.626.626,0,0,0-1.253,0v2.121h-2.035a.626.626,0,0,0,0,1.253h2.035v2.093a.626.626,0,0,0,1.253,0v-2.093h2.056a.626.626,0,1,0,0-1.253Z" transform="translate(154.221 -149.778)"/></g></svg>