<svg xmlns="http://www.w3.org/2000/svg" width="18" height="18" viewBox="0 0 18 18"><defs><style>.a{opacity:0;}.b{fill:#66677c;}</style></defs><g transform="translate(-405.23 -101.23)"><rect class="a" width="18" height="18" transform="translate(405.23 101.23)"/><path class="b" d="M269.147,262.585h-4.682V257.87c0-.725-.211-1.312-.935-1.312s-.823.587-.823,1.312v4.715h-4.751c-.725,0-1.312.315-1.312,1.04s.587.987,1.312.987h4.751v4.82c0,.725.1,1.2.823,1.2s.935-.475.935-1.2v-4.82h4.682c.725,0,1.312-.263,1.312-.987s-.587-1.04-1.312-1.04Z" transform="translate(150.679 -153.364)"/></g></svg>