<svg xmlns="http://www.w3.org/2000/svg" width="20" height="20" viewBox="0 0 20 20"><defs><style>.a{opacity:0;}.b{fill:#66677c;}</style></defs><g transform="translate(-405 -101)"><rect class="a" width="20" height="20" transform="translate(405 101)"/><path class="b" d="M92.035,20.822,98.2,22.068a.67.67,0,0,1,.537.657V31.8a.67.67,0,0,1-.323.573l-6.379,3.866-6.377-3.83a.67.67,0,0,1-.325-.575V22.726a.67.67,0,0,1,.537-.657l6.164-1.248Zm0,1.366-5.361,1.084v8.179l5.358,3.217L97.4,31.418V23.273Zm0,1.657a2.681,2.681,0,0,1,.67,5.277v.755H93.71a.335.335,0,0,1,.335.335v.67a.335.335,0,0,1-.335.335H92.705v1.005a.335.335,0,0,1-.335.335H91.7a.335.335,0,0,1-.335-.335v-3.1a2.682,2.682,0,0,1,.67-5.277Zm0,1.34a1.34,1.34,0,1,0,1.34,1.34A1.34,1.34,0,0,0,92.035,25.185Z" transform="translate(322.965 82.471)"/></g></svg>