<svg xmlns="http://www.w3.org/2000/svg" width="16" height="16" viewBox="0 0 16 16"><defs><style>.a,.b{fill:#1890ff;}.a{opacity:0;}</style></defs><rect class="a" width="16" height="16"/><path class="b" d="M11.4,7.64H2.049L5.82,3.971a.574.574,0,0,0,0-.823.614.614,0,0,0-.849,0L.189,7.8A.782.782,0,0,0,.043,8a.65.65,0,0,0-.026.137c0,.026-.017.051-.017.086a.592.592,0,0,0,.171.411l4.8,4.663a.628.628,0,0,0,.42.171.612.612,0,0,0,.42-.171.574.574,0,0,0,0-.823L2.049,8.806H11.4a.583.583,0,1,0,0-1.166Z" transform="translate(2 -0.224)"/></svg>