<svg xmlns="http://www.w3.org/2000/svg" width="18" height="18" viewBox="0 0 18 18"><defs><style>.a{opacity:0;}.b{fill:#66677c;}</style></defs><g transform="translate(-405.23 -101.23)"><rect class="a" width="18" height="18" transform="translate(405.23 101.23)"/><g transform="translate(312.699 11.512)"><path class="b" d="M107.9,623.75a.634.634,0,0,0-.636.632v3.162H95.8v-3.161a.636.636,0,0,0-1.271,0v3.8a.634.634,0,0,0,.636.632H107.9a.634.634,0,0,0,.636-.632v-3.8A.634.634,0,0,0,107.9,623.75Z" transform="translate(0 -523.092)"/><path class="b" d="M249.906,102.9a.643.643,0,0,0,.946,0l3.515-3.8a.633.633,0,0,0-.038-.9.649.649,0,0,0-.908.037l-2.369,2.562V92.351a.638.638,0,0,0-1.277,0v8.53l-2.439-2.636a.646.646,0,0,0-.908-.037.63.63,0,0,0-.038.9Z" transform="translate(-149.165)"/></g></g></svg>