<svg xmlns="http://www.w3.org/2000/svg" width="18" height="18" viewBox="0 0 18 18"><defs><style>.a{opacity:0;}.b{fill:#66677c;}</style></defs><g transform="translate(-405.109 -101.109)"><rect class="a" width="18" height="18" transform="translate(405.109 101.109)"/><path class="b" d="M1.463,10.654,1.1,12.633l2.363-.144L9.582,6.3l-1.9-1.827Zm-.677,2.89a.786.786,0,0,1-.776-.912L.438,9.97,7.186,3.224a.809.809,0,0,1,1.118,0l2.423,2.423a.792.792,0,0,1,0,1.119L3.953,13.539l-3.165.005h0Zm8.8-11.251,2.082,2.075L12.887,3.23,10.726,1.158Zm2.082,3.541L8.121,2.293,10.166.249a.809.809,0,0,1,1.118,0l2.424,2.423a.786.786,0,0,1,0,1.118Z" transform="translate(407.138 103.325)"/></g></svg>