<svg xmlns="http://www.w3.org/2000/svg" width="40" height="40" viewBox="0 0 40 40"><defs><style>.a{fill:#fff1d1;stroke:#ffdb89;stroke-width:2px;}.b{fill:#8d6203;}.c{stroke:none;}.d{fill:none;}</style></defs><g transform="translate(-738 -770)"><g transform="translate(738 770)"><g class="a"><rect class="c" width="40" height="40" rx="4"/><rect class="d" x="1" y="1" width="38" height="38" rx="3"/></g></g><path class="b" d="M79.291,75.016a2.184,2.184,0,0,1,2.209,2.12v.4h.311a.907.907,0,0,1,.915.83v3.413a.905.905,0,0,1-.916.892H76.771a.905.905,0,0,1-.918-.892V78.424a.906.906,0,0,1,.918-.892h.31v-.4A2.182,2.182,0,0,1,79.291,75.016Zm-8.754-1.562-.043-.026a4.842,4.842,0,0,1-2.3-4.049v-.052a5.02,5.02,0,0,1,10.036,0,4.838,4.838,0,0,1-2.3,4.1l-.043.026.1.031.2.069.1.036a.682.682,0,0,1,.413.886.714.714,0,0,1-.912.4,7.452,7.452,0,0,0-2.573-.455A7.183,7.183,0,0,0,65.928,81.5a.708.708,0,0,1-1.416,0,8.477,8.477,0,0,1,5.8-7.975l.287-.094ZM81.526,78.7H77.057v2.8h4.468ZM79.29,76.184h-.029a1.013,1.013,0,0,0-1.011.964v.38h2.08v-.36a1.009,1.009,0,0,0-.984-.984H79.29ZM73.212,65.826a3.5,3.5,0,1,0,3.6,3.5A3.552,3.552,0,0,0,73.212,65.826Z" transform="translate(684.38 716.442)"/></g></svg>