<svg xmlns="http://www.w3.org/2000/svg" width="20" height="20" viewBox="0 0 20 20"><defs><style>.a{fill:none;}.b{fill:#66677c;}</style></defs><g transform="translate(-678.207 -770.207)"><g transform="translate(678.207 770.207)"><rect class="a" width="20" height="20" rx="4"/></g><g transform="translate(676.805 752.492)"><path class="b" d="M16.748,20.078H6.056a2.325,2.325,0,0,0-2.291,2.291V33.061a2.325,2.325,0,0,0,2.291,2.291H16.748a2.325,2.325,0,0,0,2.291-2.291V22.369a2.325,2.325,0,0,0-2.291-2.291Zm.764,2.673v9.936a1.146,1.146,0,0,1-1.146,1.146H6.438a1.146,1.146,0,0,1-1.146-1.146V22.759a1.146,1.146,0,0,1,1.146-1.146h9.928a1.146,1.146,0,0,1,1.149,1.126Z"/><path class="b" d="M194.072,218.1a.619.619,0,0,0-.439.183l-1.68,1.684-.936-.936a.619.619,0,0,0-.874,0,.626.626,0,0,0,0,.871l1.375,1.371a.607.607,0,0,0,.435.179.622.622,0,0,0,.435-.179l2.119-2.119a.618.618,0,0,0-.435-1.054Zm4.949,6.4h-3.055a.7.7,0,0,0,0,1.378h3.055a.7.7,0,0,0,0-1.378Zm0-5.415h-3.036a.7.7,0,0,0,0,1.378h3.055a.7.7,0,0,0-.019-1.378Zm-6.866,3.952a2.154,2.154,0,1,0,2.15,2.15A2.154,2.154,0,0,0,192.159,223.043Zm.92,2.15a.92.92,0,1,1-.92-.92A.92.92,0,0,1,193.079,225.193Z" transform="translate(-183.369 -195.011)"/></g></g></svg>