<svg xmlns="http://www.w3.org/2000/svg" width="40" height="40" viewBox="0 0 40 40"><defs><style>.a{fill:#f2f1fe;stroke:#cbe6ff;stroke-width:2px;}.b{fill:#095396;}.c{stroke:none;}.d{fill:none;}</style></defs><g transform="translate(-678 -770)"><g transform="translate(678 770)"><g class="a"><rect class="c" width="40" height="40" rx="4"/><rect class="d" x="1" y="1" width="38" height="38" rx="3"/></g></g><g transform="translate(621.615 780.924)"><path class="b" d="M74.042,0a5.356,5.356,0,0,0-2.847,9.892,8.037,8.037,0,0,0-5.186,7.515.67.67,0,1,0,1.339,0,6.694,6.694,0,0,1,13.389,0,.67.67,0,1,0,1.339,0,8.037,8.037,0,0,0-5.187-7.515A5.356,5.356,0,0,0,74.042,0Zm0,1.339a4.017,4.017,0,1,1-4.017,4.017,4.017,4.017,0,0,1,4.017-4.017Z"/><path class="b" d="M784.741,71.956a.67.67,0,1,0,0,1.338,2.946,2.946,0,0,1,0,5.891.67.67,0,1,0,0,1.339c.07,0,.142,0,.213,0h.01l.078,0a5.056,5.056,0,0,1,5.056,5.056.67.67,0,1,0,1.338,0,6.4,6.4,0,0,0-4.066-5.958,4.285,4.285,0,0,0-2.628-7.667Z" transform="translate(-704.672 -70.617)"/></g></g></svg>