<svg xmlns="http://www.w3.org/2000/svg" width="18" height="18" viewBox="0 0 18 18"><defs><style>.a{opacity:0;}.b{fill:#66677c;}</style></defs><g transform="translate(-405.23 -101.23)"><rect class="a" width="18" height="18" transform="translate(405.23 101.23)"/><g transform="translate(394.788 38.234)"><path class="b" d="M14.324,67.661H12.772a.371.371,0,0,1-.372-.372V66.172a.371.371,0,0,1,.372-.372h1.553a.371.371,0,0,1,.372.372v1.118A.372.372,0,0,1,14.324,67.661Zm11.789,0H16.83a.371.371,0,0,1-.372-.372V66.172a.371.371,0,0,1,.372-.372h9.282a.371.371,0,0,1,.372.372v1.118A.37.37,0,0,1,26.114,67.661ZM14.324,72.927H12.772a.371.371,0,0,1-.372-.372V71.438a.371.371,0,0,1,.372-.372h1.553a.371.371,0,0,1,.372.372v1.118A.371.371,0,0,1,14.324,72.927Zm11.789,0H16.83a.371.371,0,0,1-.372-.372V71.438a.371.371,0,0,1,.372-.372h9.282a.371.371,0,0,1,.372.372v1.118A.369.369,0,0,1,26.114,72.927Z"/><path class="b" d="M14.324,815.861H12.772a.371.371,0,0,1-.372-.372v-1.118a.371.371,0,0,1,.372-.372h1.553a.371.371,0,0,1,.372.372v1.118A.371.371,0,0,1,14.324,815.861Zm11.789,0H16.83a.371.371,0,0,1-.372-.372v-1.118A.371.371,0,0,1,16.83,814h9.282a.371.371,0,0,1,.372.372v1.118A.369.369,0,0,1,26.114,815.861Z" transform="translate(0 -737.667)"/></g></g></svg>