<svg xmlns="http://www.w3.org/2000/svg" width="28" height="28" viewBox="0 0 28 28"><defs><style>.a,.b{fill:#1890ff;}.a{opacity:0;}</style></defs><g transform="translate(-100.859 432.859) rotate(-90)"><rect class="a" width="28" height="28" transform="translate(404.859 100.859)"/><path class="b" d="M18.867,11.985a1.053,1.053,0,0,1,2.107,0v6.882a2.107,2.107,0,0,1-2.107,2.107H2.107A2.107,2.107,0,0,1,0,18.867V2.107A2.107,2.107,0,0,1,2.107,0H8.989a1.053,1.053,0,0,1,0,2.107H2.107v16.76h16.76Zm.073-8.423-7.18,7.165a1.068,1.068,0,1,1-1.511-1.508l7.2-7.189H13.877a1.015,1.015,0,1,1,0-2.03h5.165a1.93,1.93,0,0,1,1.932,1.928V7.081a1.017,1.017,0,0,1-2.034,0Z" transform="translate(429.346 104.373) rotate(90)"/></g></svg>