<svg xmlns="http://www.w3.org/2000/svg" width="18" height="18" viewBox="0 0 18 18"><defs><style>.a{opacity:0;}.b{fill:#1890ff;}</style></defs><g transform="translate(-405.23 -101.23)"><rect class="a" width="18" height="18" transform="translate(405.23 101.23)"/><path class="b" d="M49.5,43.614H43.864a.321.321,0,0,0-.3.339V50.4a.322.322,0,0,0,.3.339H49.5a.322.322,0,0,0,.3-.339V43.953a.321.321,0,0,0-.3-.339Zm-.965,6.01H44.828V44.874h3.711Zm8.386-6.011h-5.64a.27.27,0,0,0-.3.227v4.3a.27.27,0,0,0,.3.226h5.639a.27.27,0,0,0,.3-.226v-4.3a.27.27,0,0,0-.3-.226ZM55.96,47.25H52.25V44.875h3.711V47.25ZM49.5,52.519H43.864a.27.27,0,0,0-.3.226v4.3a.27.27,0,0,0,.3.227H49.5a.27.27,0,0,0,.3-.227v-4.3a.27.27,0,0,0-.3-.227Zm-.965,3.487H44.828V53.631H48.54Zm8.385-5.862h-5.64a.321.321,0,0,0-.3.339v6.445a.322.322,0,0,0,.3.339h5.639a.322.322,0,0,0,.3-.339V50.483A.321.321,0,0,0,56.925,50.144Zm-.965,5.862H52.25V51.257h3.711v4.749Z" transform="translate(363.836 60.177)"/></g></svg>