<svg xmlns="http://www.w3.org/2000/svg" width="18" height="18" viewBox="0 0 18 18"><defs><style>.a{opacity:0;}.b{fill:#66677c;}</style></defs><g transform="translate(-406 -102)"><rect class="a" width="18" height="18" transform="translate(406 102)"/><path class="b" d="M133.664,128a.7.7,0,0,1,.7.7v4.964a.7.7,0,0,1-.7.7H128.7a.7.7,0,0,1-.7-.7V128.7a.7.7,0,0,1,.7-.7Zm-.468,1.167h-4.03v4.03h4.03Zm.467,6.469a.7.7,0,0,1,.7.7V141.3a.7.7,0,0,1-.7.7H128.7a.7.7,0,0,1-.7-.7v-4.964a.7.7,0,0,1,.7-.7h4.964ZM133.2,136.8h-4.03v4.031h4.03Zm8.1-8.8a.7.7,0,0,1,.7.7v6.767a.7.7,0,0,1-.7.7h-4.964a.7.7,0,0,1-.7-.7V128.7a.7.7,0,0,1,.7-.7Zm-.467,1.167H136.8V135h4.032Zm.467,8.167a.7.7,0,0,1,.7.7V141.3a.7.7,0,0,1-.7.7h-4.964a.7.7,0,0,1-.7-.7v-3.267a.7.7,0,0,1,.7-.7Zm-.467,1.167H136.8v2.333h4.032Z" transform="translate(280 -24)"/></g></svg>