<svg xmlns="http://www.w3.org/2000/svg" width="18" height="18" viewBox="0 0 18 18"><defs><style>.a{opacity:0;}.b{fill:#1890ff;}</style></defs><g transform="translate(-405.23 -101.23)"><rect class="a" width="18" height="18" transform="translate(405.23 101.23)"/><path class="b" d="M88.371,79.457H85.4V76.482a.733.733,0,0,0-.733-.732H76.482a.733.733,0,0,0-.732.732v8.181a.733.733,0,0,0,.732.732h2.975v2.975a.733.733,0,0,0,.732.733h8.181a.733.733,0,0,0,.732-.733V80.19A.732.732,0,0,0,88.371,79.457ZM77.122,77.076h6.969V84.1H77.122Zm10.7,10.717h-7.01V85.4h3.856a.733.733,0,0,0,.733-.733V80.787h2.421Z" transform="translate(331.804 27.803)"/></g></svg>