<svg xmlns="http://www.w3.org/2000/svg" width="18" height="18" viewBox="0 0 18 18"><defs><style>.a{opacity:0;}.b{fill:#1890ff;}</style></defs><g transform="translate(-405.23 -101.23)"><rect class="a" width="18" height="18" transform="translate(405.23 101.23)"/><path class="b" d="M77.26,180.5H69.333a.864.864,0,1,0,0,1.728H77.26a.864.864,0,1,0,0-1.728Zm-12.094,0a.864.864,0,1,0,0,1.728h.926a.864.864,0,0,0,0-1.727Zm0-5.275a.864.864,0,1,0,0,1.728h.927a.864.864,0,0,0,0-1.728Zm4.166,1.728H77.26a.864.864,0,1,0,0-1.728H69.333a.864.864,0,1,0,0,1.728Zm7.927,8.821H69.333a.864.864,0,1,0,0,1.728H77.26a.864.864,0,1,0,0-1.728Zm-12.094,0a.864.864,0,1,0,0,1.728h.925a.864.864,0,0,0,0-1.727Z" transform="translate(343.017 -71.135)"/></g></svg>