<svg xmlns="http://www.w3.org/2000/svg" width="18" height="18" viewBox="0 0 18 18"><defs><style>.a{opacity:0;}.b{fill:#cdd5e6;}</style></defs><g transform="translate(-405.23 -101.23)"><rect class="a" width="18" height="18" transform="translate(405.23 101.23)"/><path class="b" d="M97.233,85.333a2.1,2.1,0,0,1,2.1,2.1v9.8a2.1,2.1,0,0,1-2.1,2.1h-9.8a2.1,2.1,0,0,1-2.1-2.1v-9.8a2.1,2.1,0,0,1,2.1-2.1Zm-9.1,1.4h-.7a.7.7,0,0,0-.7.7v9.8a.7.7,0,0,0,.7.7h9.8a.7.7,0,0,0,.7-.7v-9.8a.7.7,0,0,0-.7-.7h-.7v4.2a2.1,2.1,0,0,1-1.977,2.1l-.123,0h-4.2a2.1,2.1,0,0,1-2.1-2.1Zm7,0h-5.6v4.2a.7.7,0,0,0,.618.7l.082,0h4.2a.7.7,0,0,0,.7-.7Zm-1.4.7a.7.7,0,0,1,.7.7v1.4a.7.7,0,1,1-1.4,0v-1.4A.7.7,0,0,1,93.733,87.433Z" transform="translate(321.896 17.897)"/></g></svg>