<svg xmlns="http://www.w3.org/2000/svg" width="18" height="18" viewBox="0 0 18 18"><defs><style>.a{opacity:0;}.b{fill:#1890ff;}</style></defs><g transform="translate(-405.23 -101.23)"><rect class="a" width="18" height="18" transform="translate(405.23 101.23)"/><path class="b" d="M174.054,130.633l-2.015,1.7a.835.835,0,0,1-1.077-1.276l3.388-2.86a.744.744,0,0,1,1.24.636v12.329c0,.461-.24.836-.7.836a.835.835,0,0,1-.835-.835Zm7.42,7.033a.835.835,0,0,1,1.077,1.276l-3.388,2.86a.758.758,0,0,1-1.261-.636v-12.33a.746.746,0,0,1,.722-.835.835.835,0,0,1,.835.835v10.532l2.015-1.7Z" transform="translate(237.52 -25.117)"/></g></svg>