<svg xmlns="http://www.w3.org/2000/svg" width="18" height="18" viewBox="0 0 18 18"><defs><style>.a{opacity:0;}.b{fill:#66677c;}</style></defs><g transform="translate(-405.23 -101.23)"><rect class="a" width="18" height="18" transform="translate(405.23 101.23)"/><path class="b" d="M9.989,0a.583.583,0,0,1,.578.515l0,.068v.584h.1a3.875,3.875,0,0,1,1.795.329l.1.051a2.7,2.7,0,0,1,1.124,1.122,3.98,3.98,0,0,1,.38,2.074v5.683a3.982,3.982,0,0,1-.38,2.074,2.706,2.706,0,0,1-1.122,1.122A3.981,3.981,0,0,1,10.5,14H3.647a3.976,3.976,0,0,1-2.073-.38A2.7,2.7,0,0,1,.453,12.5a3.977,3.977,0,0,1-.38-2.074V4.563A3.737,3.737,0,0,1,.453,2.668,2.7,2.7,0,0,1,1.575,1.547a3.975,3.975,0,0,1,2.073-.38H3.573V.583A.583.583,0,0,1,4.735.515l0,.068v.583H9.405V.583A.583.583,0,0,1,9.989,0Zm2.917,5.834H1.239v4.592l0,.282c0,.044,0,.086,0,.127l.012.226a2.012,2.012,0,0,0,.225.888,1.531,1.531,0,0,0,.643.643,2.017,2.017,0,0,0,.888.225l.226.012.127,0,.282,0H10.5l.282,0c.044,0,.086,0,.127,0l.226-.012a2.008,2.008,0,0,0,.888-.225,1.537,1.537,0,0,0,.643-.643,2.016,2.016,0,0,0,.225-.888l.012-.226,0-.127,0-.282ZM7.073,7a.583.583,0,0,1,.578.515l0,.068V9.092l1,1a.584.584,0,0,1,.048.77l-.048.055a.584.584,0,0,1-.77.048l-.055-.048L6.66,9.747a.584.584,0,0,1-.166-.337l-.005-.076V7.584A.584.584,0,0,1,7.073,7ZM9.406,2.334H4.74v.583a.583.583,0,0,1-1.163.068l0-.068V2.334H3.5l-.179,0-.083,0-.226.012a2.01,2.01,0,0,0-.888.225,1.539,1.539,0,0,0-.643.643,2.019,2.019,0,0,0-.225.888l-.012.226c0,.122-.006.257-.006.408V4.667H12.906l0-.208V4.395l0-.062-.012-.226a2,2,0,0,0-.225-.888,1.537,1.537,0,0,0-.643-.643,2.018,2.018,0,0,0-.888-.225l-.226-.012c-.122,0-.257-.006-.409-.006h.074v.583a.583.583,0,0,1-1.163.068l0-.068Zm0,0" transform="translate(407.158 103.229)"/></g></svg>