<svg xmlns="http://www.w3.org/2000/svg" width="18" height="18" viewBox="0 0 18 18"><defs><style>.a{opacity:0;}.b{fill:#66677c;}</style></defs><g transform="translate(-405.23 -101.23)"><rect class="a" width="18" height="18" transform="translate(405.23 101.23)"/><path class="b" d="M56.1,0a.633.633,0,0,1,.63.7l-.35,3.5h2.8L59.537.63a.7.7,0,0,1,.7-.63H60.3a.633.633,0,0,1,.63.7l-.35,3.5H63.1a.619.619,0,0,1,.7.7.619.619,0,0,1-.7.7H60.44l-.28,2.8H63.1a.619.619,0,0,1,.7.7.619.619,0,0,1-.7.7H60.02l-.357,3.57a.7.7,0,0,1-.7.63H58.9a.633.633,0,0,1-.63-.7l.35-3.5h-2.8l-.357,3.57a.7.7,0,0,1-.7.63H54.7a.633.633,0,0,1-.63-.7l.35-3.5H51.9a.619.619,0,0,1-.7-.7.619.619,0,0,1,.7-.7h2.66l.28-2.8H51.9a.617.617,0,0,1-.7-.7.619.619,0,0,1,.7-.7h3.08L55.337.63a.7.7,0,0,1,.7-.63Zm2.94,5.6h-2.8l-.28,2.8h2.8Z" transform="translate(356.632 103.12)"/></g></svg>