<svg xmlns="http://www.w3.org/2000/svg" width="18" height="18" viewBox="0 0 18 18"><defs><style>.a{opacity:0;}.b{fill:#66677c;}</style></defs><g transform="translate(-405.23 -101.23)"><rect class="a" width="18" height="18" transform="translate(405.23 101.23)"/><g transform="translate(360.252 -264.363)"><path class="b" d="M246.165,391.867l.922.483-1.666,3.177-.922-.483,1.666-3.177Zm-2.23,0,.922.483-1.666,3.177-.922-.483,1.666-3.177Z" transform="translate(-192.598 -19.191)"/><path class="b" d="M59.181,372.364a2.23,2.23,0,1,1,0,4.46H48.775a2.23,2.23,0,1,1,0-4.46Zm0,1.041H48.775a1.189,1.189,0,0,0-.109,2.373l.109.005H59.181a1.189,1.189,0,0,0,.109-2.373Z" transform="translate(0 0)"/></g></g></svg>