<svg xmlns="http://www.w3.org/2000/svg" width="18" height="18" viewBox="0 0 18 18"><defs><style>.a{opacity:0;}.b{fill:#66677c;}</style></defs><g transform="translate(-405.23 -101.23)"><rect class="a" width="18" height="18" transform="translate(405.23 101.23)"/><g transform="translate(218.552 -74.557) rotate(-45)"><path class="b" d="M.859,271.473a3.816,3.816,0,0,1-.608-3.8,3.115,3.115,0,0,1,3.01-2.319c1-.053,2.011-.028,3.032,0a.817.817,0,0,1,.8.843.708.708,0,0,1-.8.738H3.3a2.123,2.123,0,0,0-1.63,3.215,1.6,1.6,0,0,0,1.427.993c1.021.026,1.855.026,2.876.053a.754.754,0,0,1,.608.282c.359.457.093,1.221-.453,1.221-1.13.053-2.127.026-3.3-.027a3.1,3.1,0,0,1-1.965-1.2Zm13.556.131a3.052,3.052,0,0,1-2.331,1.1H9.1a.735.735,0,0,1-.772-.764.708.708,0,0,1,.794-.738c.952,0,1.927.027,2.9,0a2,2,0,0,0,2.011-2.117,2.043,2.043,0,0,0-1.9-2.144c-.975-.026-1.95,0-2.9,0a.738.738,0,0,1-.608-1.151.8.8,0,0,1,.585-.361,27.318,27.318,0,0,1,3.282.027,3.027,3.027,0,0,1,2.736,2.319,4.052,4.052,0,0,1-.811,3.831Z" transform="translate(0 0)"/><path class="b" d="M267.518,462.451a.887.887,0,0,1,.428-.131c1.972-.027,3.913-.027,5.908-.027a.727.727,0,0,1,.7.791.7.7,0,0,1-.725.765H268.04a.685.685,0,0,1-.7-.483.76.76,0,0,1,.179-.914Z" transform="translate(-263.243 -194.01)"/></g></g></svg>