<svg xmlns="http://www.w3.org/2000/svg" width="18" height="18" viewBox="0 0 18 18"><defs><style>.a{opacity:0;}.b{fill:#66677c;}</style></defs><g transform="translate(-405.23 -101.23)"><rect class="a" width="18" height="18" transform="translate(405.23 101.23)"/><g transform="translate(344.031 39.83)"><path class="b" d="M296.193,384.456a.741.741,0,0,0,0,1l2.907,3.088a.639.639,0,0,0,.941,0l2.909-3.088a.741.741,0,0,0,0-1,.639.639,0,0,0-.941,0l-2.437,2.588-2.439-2.588A.639.639,0,0,0,296.193,384.456Z" transform="translate(-229.512 -315.85)"/><path class="b" d="M76.65,67.675a7.01,7.01,0,1,0-2.165,8.26l0,0a.63.63,0,0,0-.782-.988l0,0a5.728,5.728,0,1,1,1.48-1.7l.006,0a.63.63,0,1,0,1.088.627l0,0a6.857,6.857,0,0,0,.372-.752,7.03,7.03,0,0,0,0-5.449Z" transform="translate(0)"/></g></g></svg>