<svg xmlns="http://www.w3.org/2000/svg" width="18" height="18" viewBox="0 0 18 18"><defs><style>.a{opacity:0;}.b{fill:#66677c;}</style></defs><g transform="translate(-405.23 -101.23)"><rect class="a" width="18" height="18" transform="translate(405.23 101.23)"/><g transform="translate(343.131 37.861)"><path class="b" d="M77.591,72.171l-4.825-4.9,0,0c-1.1-1.084-1.9-1.867-3.272-1.867h-2.2a3.234,3.234,0,0,0-2.612.8,3.874,3.874,0,0,0-.576,2.476v2.341a3.046,3.046,0,0,0,.244,1.413,4.466,4.466,0,0,0,.955,1.156l5.441,5.32a1.887,1.887,0,0,0,2.478,0L77.6,74.644a1.762,1.762,0,0,0,0-2.473Zm-.846,1.6-4.377,4.262a.609.609,0,0,1-.775,0L66.152,72.7c-.813-.786-.832-.868-.832-1.693V68.67c0-.955.041-1.427.287-1.7.265-.293.816-.351,1.679-.351h2.2c.849,0,1.356.467,2.424,1.522l.443.432,4.379,4.462,0,0a.508.508,0,0,1,.149.374A.491.491,0,0,1,76.745,73.766Z" transform="translate(0 0)"/><path class="b" d="M220.869,219.3a1.769,1.769,0,1,0,1.769,1.769A1.77,1.77,0,0,0,220.869,219.3Zm0,2.291a.522.522,0,1,1,.522-.522A.522.522,0,0,1,220.869,221.591Z" transform="translate(-152.568 -151.485)"/></g></g></svg>