<svg xmlns="http://www.w3.org/2000/svg" width="18" height="18" viewBox="0 0 18 18"><defs><style>.a{opacity:0;}.b{fill:#66677c;}</style></defs><g transform="translate(-405.23 -101.23)"><rect class="a" width="18" height="18" transform="translate(405.23 101.23)"/><g transform="translate(407.23 103.23)"><path class="b" d="M7,0a7,7,0,1,0,7,7A7,7,0,0,0,7,0ZM7,12.667A5.667,5.667,0,1,1,12.667,7,5.662,5.662,0,0,1,7,12.667Z"/><path class="b" d="M441.738,258.157l-1.509-1.1v-2.812a.686.686,0,1,0-1.372,0V257.4a.582.582,0,0,0,.309.549l1.817,1.269a.719.719,0,0,0,.377.137.618.618,0,0,0,.549-.309A.6.6,0,0,0,441.738,258.157Z" transform="translate(-432.906 -250.162)"/></g></g></svg>