<svg xmlns="http://www.w3.org/2000/svg" width="32" height="32" viewBox="0 0 32 32"><defs><style>.a{fill:#deefff;}.b{fill:#66677c;}</style></defs><g transform="translate(0.366 -0.001)"><rect class="a" width="32" height="32" rx="4" transform="translate(-0.366 0.001)"/><path class="b" d="M141.516,105.32h-7.68a.768.768,0,1,0,0,1.532h7.677a.768.768,0,1,0,0-1.532Zm5.472-3.81-1.508-2.475c-.435-.977-1.863-.811-1.693.124a.652.652,0,0,0,.043.1l1.852,3.044a.641.641,0,0,0,.06.081H129.589l1.9-3.123a.684.684,0,0,0,.1-.359V94.467a5.922,5.922,0,0,1,4.143-5.145,8.13,8.13,0,0,1,1.286-.29,6.165,6.165,0,0,1,1.268,0,8.783,8.783,0,0,1,1.386.32,5.926,5.926,0,0,1,4.054,5.115v2.386c.04.68,1.436.751,1.553,0V94.467a6.39,6.39,0,0,0-1.413-3.839,8.038,8.038,0,0,0-2.961-2.331,3.244,3.244,0,0,0-6.462-.02,8.024,8.024,0,0,0-2.968,2.316,6.41,6.41,0,0,0-1.44,3.874v4.242l-1.841,3.023a1.332,1.332,0,0,0,0,1.4,1.531,1.531,0,0,0,1.3.7h16.343a1.517,1.517,0,0,0,1.366-.821A1.335,1.335,0,0,0,146.988,101.511ZM137.676,86.7a1.774,1.774,0,0,1,1.668,1.1,9.754,9.754,0,0,0-3.331-.01A1.776,1.776,0,0,1,137.676,86.7Z" transform="translate(-122.041 -80.092)"/></g></svg>