<svg xmlns="http://www.w3.org/2000/svg" width="18" height="18" viewBox="0 0 18 18"><defs><style>.a{opacity:0;}.b{fill:#66677c;}</style></defs><rect class="a" width="18" height="18"/><g transform="translate(2.281 1.805)"><path class="b" d="M11.55,0H1.888A1.89,1.89,0,0,0,0,1.888V11.55a1.89,1.89,0,0,0,1.888,1.888H4.934a.63.63,0,0,0,0-1.26H1.888a.629.629,0,0,1-.629-.628V1.888a.629.629,0,0,1,.629-.629H11.55a.629.629,0,0,1,.628.629V5.354a.63.63,0,0,0,1.26,0V1.888A1.89,1.89,0,0,0,11.55,0Z"/><path class="b" d="M382.8,341.634l-7.237-3.646a.628.628,0,0,0-.888.725l2.095,7.718a.628.628,0,0,0,1.186.075l1.248-3.022,3.435-.673a.628.628,0,0,0,.162-1.176Zm-4.169.682a.63.63,0,0,0-.46.376l-.673,1.63-1.243-4.581,4.343,2.188Z" transform="translate(-369.709 -333.456)"/></g></svg>