<svg xmlns="http://www.w3.org/2000/svg" width="18" height="18" viewBox="0 0 18 18"><defs><style>.a{opacity:0;}.b{fill:#66677c;}</style></defs><g transform="translate(-405.23 -101.23)"><rect class="a" width="18" height="18" transform="translate(405.23 101.23)"/><path class="b" d="M125.548,69.206a3.806,3.806,0,1,0-5.869,3.194,5.59,5.59,0,0,0-1.144.611,5.708,5.708,0,0,0-1.284,1.228,5.6,5.6,0,0,0-1.151,3.408.5.5,0,1,0,1.009,0,4.638,4.638,0,0,1,4.633-4.633A3.811,3.811,0,0,0,125.548,69.206ZM121.74,72a2.8,2.8,0,1,1,2.8-2.8A2.8,2.8,0,0,1,121.74,72Zm3.422,1.158a.5.5,0,0,0-.613.8,4.6,4.6,0,0,1,1.823,3.684.5.5,0,1,0,1.009,0A5.6,5.6,0,0,0,125.162,73.163Z" transform="translate(292.49 38.454)"/></g></svg>