<svg xmlns="http://www.w3.org/2000/svg" width="64" height="64" viewBox="0 0 64 64"><defs><style>.a{fill:#fff;}.b{fill:#66677c;}</style></defs><g transform="translate(-224 -202)"><rect class="a" width="64" height="64" rx="8" transform="translate(224 202)"/><g transform="translate(245.53 228.151)"><path class="b" d="M49.531,464.127H32.09a1.064,1.064,0,1,1,0-2.127H49.531a1.064,1.064,0,1,1,0,2.127Z" transform="translate(-31 -457.214)"/><path class="b" d="M685.7,249.6l-4.51-4.51a1.063,1.063,0,1,1,1.5-1.5l4.513,4.51a1.064,1.064,0,0,1-1.505,1.5Z" transform="translate(-666.573 -243.275)"/><path class="b" d="M681.186,473.5l4.51-4.51a1.063,1.063,0,0,1,1.5,1.5l-4.51,4.51a1.063,1.063,0,0,1-1.5-1.5Z" transform="translate(-666.573 -463.612)"/></g></g></svg>