<svg xmlns="http://www.w3.org/2000/svg" width="18" height="18" viewBox="0 0 18 18"><defs><style>.a{opacity:0;}.b{fill:#5c6479;}</style></defs><rect class="a" width="18" height="18"/><path class="b" d="M92.333,99.333a7.021,7.021,0,0,1-7-7,.7.7,0,0,1,1.4,0,5.6,5.6,0,1,0,5.6-5.6,5.339,5.339,0,0,0-4.62,2.52.763.763,0,0,1-.98.14.688.688,0,0,1-.21-.98,7,7,0,1,1,5.81,10.92Zm0-6.3a.661.661,0,0,1-.7-.7v-3.5a.7.7,0,1,1,1.4,0v3.5A.661.661,0,0,1,92.333,93.033Zm2.1,2.1a.636.636,0,0,1-.49-.21l-2.1-2.1a.693.693,0,1,1,.98-.98l2.1,2.1a.677.677,0,0,1,0,.98A.635.635,0,0,1,94.433,95.133Zm-4.9-5.6h-2.8a.661.661,0,0,1-.7-.7v-2.8a.7.7,0,1,1,1.4,0v2.1h2.1a.7.7,0,1,1,0,1.4Z" transform="translate(-83.334 -83.333)"/></svg>