<svg xmlns="http://www.w3.org/2000/svg" width="18" height="18" viewBox="0 0 18 18"><defs><style>.a{opacity:0;}.b{fill:#66677c;}</style></defs><rect class="a" width="18" height="18"/><path class="b" d="M1.842,10.747l-.385,1.464H3.352L9.2,6.308l-1.48-1.49Zm-1.056,2.8a.786.786,0,0,1-.776-.912L.438,9.97,7.186,3.224a.809.809,0,0,1,1.118,0l2.423,2.423a.792.792,0,0,1,0,1.119L3.953,13.539l-3.165.005h0ZM9.91,2.293l1.753,1.7.79-.761L10.726,1.438Zm1.753,3.541L8.121,2.293,10.166.249a.809.809,0,0,1,1.118,0l2.424,2.423a.786.786,0,0,1,0,1.118Z" transform="translate(2.029 2.216)"/></svg>