<svg xmlns="http://www.w3.org/2000/svg" width="18" height="18" viewBox="0 0 18 18"><defs><style>.a{opacity:0;}.b{fill:#66677c;}</style></defs><rect class="a" width="18" height="18"/><path class="b" d="M14.019,85.318a.6.6,0,0,1,.788.671L12.992,97.181a.605.605,0,0,1-.895.43L7.266,94.886l-2.2.94a.605.605,0,0,1-.842-.513l0-.044,0-2.095L.3,90.956a.605.605,0,0,1,.059-1.083l.047-.018Zm-.566,1.464L2.082,90.572l3.052,1.722a.605.605,0,0,1,.306.478l0,.05,0,1.53,1.626-.7a.605.605,0,0,1,.485,0l.05.025,4.336,2.446,1.516-9.35Zm-1.8,1.748a.605.605,0,0,1-.041.819l-.037.033-3.63,3.025a.605.605,0,0,1-.811-.9l.037-.033,3.63-3.025A.605.605,0,0,1,11.65,88.529Z" transform="translate(1.596 -82.488)"/></svg>