<svg xmlns="http://www.w3.org/2000/svg" width="18" height="18" viewBox="0 0 18 18"><defs><style>.a{opacity:0;}.b{fill:#66677c;}</style></defs><rect class="a" width="18" height="18"/><path class="b" d="M77.5,66.064H74.16v-1.2a1.08,1.08,0,0,0-.959-.937H68.744a1.046,1.046,0,0,0-.926.937v1.2H64.5a.661.661,0,0,0-.568.6.679.679,0,0,0,.568.619h13c.275,0,.516-.344.516-.619A.613.613,0,0,0,77.5,66.064Zm-8.5,0v-.6a.4.4,0,0,1,.4-.4h3.2a.4.4,0,0,1,.4.4v.6Zm6.335,2c-.385,0-.65.23-.65.5v8c0,.276.11.32-.167.32H67.575c-.276,0-.253-.044-.253-.32v-8a.6.6,0,0,0-.664-.5c-.467.006-.658.23-.658.5v9a.5.5,0,0,0,.5.5h9a.5.5,0,0,0,.5-.5v-9C76,68.293,75.721,68.063,75.336,68.063Z" transform="translate(-61.969 -61.996)"/></svg>