<svg xmlns="http://www.w3.org/2000/svg" width="18" height="18" viewBox="0 0 18 18"><defs><style>.a{opacity:0;}.b{fill:#5c6479;}</style></defs><rect class="a" width="18" height="18"/><path class="b" d="M72.548,58.85c.013.017.026.034.038.052l0,.008a.728.728,0,0,1,.077.649l.014-.045-.007.024-.007.021-4.4,12.558a.744.744,0,0,1-1.382.057l-2.4-5.39-5.39-2.4a.744.744,0,0,1-.009-1.355l.066-.026,12.558-4.4.047-.015a.731.731,0,0,1,.725.191l.01.01.033.037.008.01ZM70.725,61.4l-4.982,5,1.68,3.865Zm-.8-.813-9.1,3.184,4,1.731,5.1-4.915Z" transform="translate(-57.063 -56.971)"/></svg>