<svg xmlns="http://www.w3.org/2000/svg" width="32" height="32" viewBox="0 0 32 32"><defs><style>.a{fill:#deefff;}.b{fill:#66677c;}</style></defs><rect class="a" width="32" height="32" rx="4"/><g transform="translate(4.439 6)"><path class="b" d="M12.14,20a.96.96,0,0,1-.957-.963V8.127a.966.966,0,0,1,.23-.616l4.5-5.585H3.218L7.9,7.492a.966.966,0,0,1,.23.636v6.894l1.111.876a.98.98,0,0,1-.488,1.743.953.953,0,0,1-.718-.2L6.549,16.264a.965.965,0,0,1-.373-.77v-7L.355,1.618A1.025,1.025,0,0,1,.211.568.957.957,0,0,1,1.083,0H17.961a.957.957,0,0,1,.881.558.967.967,0,0,1-.124,1.05l-5.6,6.866V19.066A.96.96,0,0,1,12.14,20Z" transform="translate(0 0)"/><path class="b" d="M761.2,442.8H754.8a.99.99,0,0,1,0-1.979H761.2a.99.99,0,1,1,0,1.979Zm0-4.176H754.8a.99.99,0,0,1,0-1.979H761.2a.99.99,0,1,1,0,1.979Zm0-4.275H754.8a.99.99,0,0,1,0-1.979H761.2a.99.99,0,1,1,0,1.979Z" transform="translate(-739.192 -424.25)"/></g></svg>