<svg xmlns="http://www.w3.org/2000/svg" width="18" height="18" viewBox="0 0 18 18"><defs><style>.a{fill:#fff;}.b{fill:#66677c;}</style></defs><g transform="translate(-405.23 -101.23)"><rect class="a" width="18" height="18" rx="9" transform="translate(405.23 101.23)"/><g transform="translate(343.23 39.23)"><path class="b" d="M71,64a7,7,0,1,0,7,7A7,7,0,0,0,71,64Zm0,12.749A5.75,5.75,0,1,1,76.749,71,5.75,5.75,0,0,1,71,76.749Z" transform="translate(0 0)"/><path class="b" d="M263.391,259.305h-2.833v-2.679a.626.626,0,0,0-1.253,0v2.679h-2.679a.626.626,0,0,0,0,1.253h2.679v2.833a.626.626,0,0,0,1.253,0v-2.833h2.833a.626.626,0,0,0,0-1.253Z" transform="translate(71 -296.708) rotate(45)"/></g></g></svg>