<svg xmlns="http://www.w3.org/2000/svg" width="18" height="18" viewBox="0 0 18 18"><defs><style>.a{opacity:0;}.b{fill:#66677c;}</style></defs><g transform="translate(-405.23 -101.23)"><rect class="a" width="18" height="18" transform="translate(405.23 101.23)"/><path class="b" d="M2.019,3.365h6.73a2.019,2.019,0,0,1,2.019,2.019v6.73a2.019,2.019,0,0,1-2.019,2.019H2.019A2.019,2.019,0,0,1,0,12.114V5.384A2.019,2.019,0,0,1,2.019,3.365Zm0,1.346a.673.673,0,0,0-.673.673v6.73a.673.673,0,0,0,.673.673h6.73a.673.673,0,0,0,.673-.673V5.384a.673.673,0,0,0-.673-.673ZM4.711,2.1a.673.673,0,1,1-1.346,0V2.019A2.019,2.019,0,0,1,5.384,0h6.73a2.019,2.019,0,0,1,2.019,2.019v6.73a2.019,2.019,0,0,1-2.019,2.019.673.673,0,1,1,0-1.346.673.673,0,0,0,.673-.673V2.019a.673.673,0,0,0-.673-.673H5.384a.673.673,0,0,0-.673.673Z" transform="translate(407.164 103.164)"/></g></svg>