<svg xmlns="http://www.w3.org/2000/svg" width="18" height="18" viewBox="0 0 18 18"><defs><style>.a{opacity:0;}.b{fill:#66677c;}</style></defs><g transform="translate(-405.23 -101.23)"><rect class="a" width="18" height="18" transform="translate(405.23 101.23)"/><path class="b" d="M1.12,83.72A1.123,1.123,0,0,1,0,82.6V72.8a1.123,1.123,0,0,1,1.12-1.12H12.88A1.123,1.123,0,0,1,14,72.8v9.8a1.123,1.123,0,0,1-1.12,1.12ZM2.1,72.933a.842.842,0,0,0-.84.84V81.62a.842.842,0,0,0,.84.84h9.8a.842.842,0,0,0,.84-.84V73.78a.842.842,0,0,0-.84-.84H2.1ZM3.57,79.8a.63.63,0,0,1,0-1.26H6.51a.63.63,0,0,1,0,1.26Zm0-2.94a.63.63,0,1,1,0-1.26H9.45a.63.63,0,1,1,0,1.26H3.57Z" transform="translate(407.23 32.531)"/></g></svg>