<svg xmlns="http://www.w3.org/2000/svg" width="18" height="18" viewBox="0 0 18 18"><defs><style>.a{opacity:0;}.b{fill:#66677c;}</style></defs><g transform="translate(-405.23 -101.23)"><rect class="a" width="18" height="18" transform="translate(405.23 101.23)"/><path class="b" d="M100.02,99c-.117-.117-.234-.195-.35-.312l-1.09,1.09a2.14,2.14,0,0,1,.35.273l.039.039a1.786,1.786,0,0,1,0,2.531l-3,3a1.786,1.786,0,0,1-2.531,0l-.039-.039a1.786,1.786,0,0,1,0-2.531l1.363-1.363a4.885,4.885,0,0,1-.35-1.791l-2.1,2.1a3.314,3.314,0,0,0,0,4.673l.039.039a3.314,3.314,0,0,0,4.673,0l3-3a3.314,3.314,0,0,0,0-4.673Zm4.4-4.323-.039-.039a3.314,3.314,0,0,0-4.673,0l-3,2.96a3.314,3.314,0,0,0,0,4.673l.039.039c.117.117.234.195.35.312l1.09-1.09a2.14,2.14,0,0,1-.35-.273l-.039-.039a1.786,1.786,0,0,1,0-2.531l3-3a1.786,1.786,0,0,1,2.531,0l.039.039a1.786,1.786,0,0,1,0,2.531l-1.363,1.363a4.885,4.885,0,0,1,.35,1.791l2.1-2.1A3.3,3.3,0,0,0,104.421,94.676Z" transform="translate(315.863 9.558)"/></g></svg>