<svg xmlns="http://www.w3.org/2000/svg" width="18" height="18" viewBox="0 0 18 18"><defs><style>.a{opacity:0;}.b{fill:#66677c;}</style></defs><g transform="translate(-405.23 -101.23)"><rect class="a" width="18" height="18" transform="translate(405.23 101.23)"/><g transform="translate(367.717 -57.086)"><path class="b" d="M352.285,354.7a2.418,2.418,0,1,1,2.418-2.418A2.417,2.417,0,0,1,352.285,354.7Zm0-3.564a1.1,1.1,0,0,0-1.145,1.145,1.069,1.069,0,0,0,1.145,1.145,1.145,1.145,0,0,0,0-2.291Z" transform="translate(-305.818 -184.969)"/><path class="b" d="M46.467,172.5a7.231,7.231,0,0,1-6.953-4.993.4.4,0,0,1,0-.379,7.349,7.349,0,0,1,6.953-4.993,7.231,7.231,0,0,1,6.953,4.993.4.4,0,0,1,0,.379A7.349,7.349,0,0,1,46.467,172.5Zm-5.625-5.183a5.9,5.9,0,0,0,5.625,3.919,5.955,5.955,0,0,0,5.625-3.919,5.9,5.9,0,0,0-5.625-3.919A5.955,5.955,0,0,0,40.841,167.316Z" transform="translate(0 0)"/></g></g></svg>