<svg xmlns="http://www.w3.org/2000/svg" width="18" height="18" viewBox="0 0 18 18"><defs><style>.a{opacity:0;}.b{fill:#66677c;}</style></defs><g transform="translate(-405.23 -101.23)"><rect class="a" width="18" height="18" transform="translate(405.23 101.23)"/><path class="b" d="M11.985,6.586l3.1-2.922a1.579,1.579,0,0,0,0-2.224L14.3.654A1.49,1.49,0,0,0,12.116.611L9.063,3.489,6.1.349,6.054.305a1,1,0,0,0-1.439,0L2.39,2.486a1.026,1.026,0,0,0,0,1.439l2.922,3.1L2.564,9.639a1.416,1.416,0,0,0-.436.785l-.48,1.963a1.087,1.087,0,0,0,.305,1,1.064,1.064,0,0,0,1,.262l1.919-.567a2.391,2.391,0,0,0,.654-.349l2.7-2.573,3.271,3.489.044.044A1.052,1.052,0,0,0,12.29,14a1.021,1.021,0,0,0,.741-.305l2.224-2.224a1.027,1.027,0,0,0,0-1.439L11.985,6.586Zm.654-5.146a.5.5,0,0,1,.741,0l.741.741a.553.553,0,0,1,0,.785l-1,.96a.152.152,0,0,0-.044-.087L11.636,2.4ZM4.745,4.972a.5.5,0,0,0,.349-.131L5.879,4.1a.453.453,0,0,0,0-.7.5.5,0,0,0-.741,0L4.4,4.1a.877.877,0,0,0-.174.349L3.262,3.4,5.487,1.221,8.1,4.012,5.835,6.106Zm-.218,7.109-2.006.567H2.477V12.6l.48-1.963a.227.227,0,0,1,.087-.174c.044.044.044.131.131.174l1.483,1.4c-.044,0-.087.044-.131.044ZM5.4,11.34,3.96,9.9a.227.227,0,0,0-.174-.087l7.153-6.76,1.483,1.483c.044.044.044.044.087.044Zm6.629,1.483h0L10.284,10.9a.24.24,0,0,0,.218-.131l.785-.785a.492.492,0,0,0,.131-.48.469.469,0,0,0-.393-.349.573.573,0,0,0-.523.131l-.785.785c-.044.044-.087.131-.131.174L9.019,9.6l2.355-2.181L14.3,10.6Z" transform="translate(405.645 103.23)"/></g></svg>