<svg xmlns="http://www.w3.org/2000/svg" width="18" height="18" viewBox="0 0 18 18"><defs><style>.a{opacity:0;}.b{fill:#1890ff;}</style></defs><g transform="translate(-405.23 -101.23)"><rect class="a" width="18" height="18" transform="translate(405.23 101.23)"/><g transform="translate(254.974 -11.956)"><path class="b" d="M154.574,127.045V117.5c0-.479.14-.771.619-.771h8.268v-.616a.874.874,0,0,0-.875-.868h-8.68a.883.883,0,0,0-.885.868V128.26a.885.885,0,0,0,.885.87h8.68a.876.876,0,0,0,.875-.87V127.7h-8.436c-.479,0-.451-.173-.451-.652Z" transform="translate(0 0)"/><path class="b" d="M409.36,317.835l-2.211,2.078a.689.689,0,0,1-1.08-.032c-.242-.407-.07-.686.237-.975l1.369-1.232H403.22c-.424,0-.768-.194-.768-.618s.344-.6.768-.6h4.456l-1.369-1.209c-.307-.289-.525-.718-.237-1.025a.516.516,0,0,1,.556-.242.76.76,0,0,1,.523.206l2.21,2.077a1.074,1.074,0,0,1,0,1.573Z" transform="translate(-244.211 -194.864)"/></g></g></svg>