<svg xmlns="http://www.w3.org/2000/svg" width="18" height="18" viewBox="0 0 18 18"><defs><style>.a{opacity:0;}.b{fill:#1890ff;}</style></defs><g transform="translate(-405 -101)"><rect class="a" width="18" height="18" transform="translate(405 101)"/><path class="b" d="M91.186,4.9V3.677a3.677,3.677,0,1,1,7.354,0V4.905h.175a1.926,1.926,0,0,1,1.923,1.923v5.249A1.921,1.921,0,0,1,98.716,14H91.011a1.926,1.926,0,0,1-1.923-1.923V6.828a1.921,1.921,0,0,1,1.923-1.923h.175Zm1.053,0h5.249V3.677a2.625,2.625,0,1,0-5.249,0V4.9Zm-2.1,1.93v5.249a.878.878,0,0,0,.877.877h7.7a.876.876,0,0,0,.618-.253.848.848,0,0,0,.253-.618V6.828a.878.878,0,0,0-.877-.877h-7.7a.876.876,0,0,0-.618.253A.905.905,0,0,0,90.141,6.828Zm0,0" transform="translate(319.137 103)"/></g></svg>