<svg xmlns="http://www.w3.org/2000/svg" width="20" height="20" viewBox="0 0 20 20"><defs><style>.a{opacity:0;}.b{fill:#5c6479;}</style></defs><g transform="translate(-517 -11840)"><rect class="a" width="20" height="20" transform="translate(517 11840)"/><path class="b" d="M6.614,231.48l-5.291-5.291a.748.748,0,0,1,1.058-1.058l4.762,4.761,4.762-4.761a.748.748,0,0,1,1.058,1.058L7.673,231.48A.749.749,0,0,1,6.614,231.48Z" transform="translate(296.695 11857.144) rotate(-90)"/><path class="b" d="M6.614,231.48l-5.291-5.291a.748.748,0,0,1,1.058-1.058l4.762,4.761,4.762-4.761a.748.748,0,0,1,1.058,1.058L7.673,231.48A.749.749,0,0,1,6.614,231.48Z" transform="translate(300.695 11857.143) rotate(-90)"/></g></svg>