<svg xmlns="http://www.w3.org/2000/svg" width="18" height="18" viewBox="0 0 18 18"><defs><style>.a{opacity:0;}.b{fill:#66677c;}</style></defs><g transform="translate(-405 -101)"><rect class="a" width="18" height="18" transform="translate(405 101)"/><g transform="translate(291.614 89.037)"><path class="b" d="M126.276,18.76H120.13V17.339a2.259,2.259,0,0,1,4.512-.178.533.533,0,0,0,1.066,0,3.414,3.414,0,0,0-3.375-3.2,3.351,3.351,0,0,0-3.34,3.411V18.8h-.5a2.094,2.094,0,0,0-2.132,2.132v4.9a2.094,2.094,0,0,0,2.132,2.132h7.781a2.094,2.094,0,0,0,2.132-2.132V20.892A2.094,2.094,0,0,0,126.276,18.76Zm1.066,7.07a1.093,1.093,0,0,1-1.066,1.066h-7.745a1.093,1.093,0,0,1-1.066-1.066V20.892a1.093,1.093,0,0,1,1.066-1.066h7.781a1.093,1.093,0,0,1,1.066,1.066v4.939Z"/></g></g></svg>