<svg xmlns="http://www.w3.org/2000/svg" width="20" height="20" viewBox="0 0 20 20"><defs><style>.a{opacity:0;}.b{fill:#1ba0ff;}</style></defs><g transform="translate(-1001 -656)"><rect class="a" width="20" height="20" transform="translate(1001 656)"/><path class="b" d="M1.845,17.23a.616.616,0,0,1-.616-.616V14.768H1a1,1,0,0,1-1-1V9A1,1,0,0,1,1,8h.229V.615A.616.616,0,0,1,1.845,0H14.153a.616.616,0,0,1,.616.615V8H15a1,1,0,0,1,1,1v4.769a1,1,0,0,1-1,1h-.23v1.846a.616.616,0,0,1-.616.616Zm0-.616H14.153V14.768H1.845Zm8.975-6.62a1.572,1.572,0,0,0-.59.635,1.981,1.981,0,0,0-.212.924,2.086,2.086,0,0,0,.209.941,1.6,1.6,0,0,0,.58.648,1.561,1.561,0,0,0,.84.232,1.456,1.456,0,0,0,.8-.224,1.49,1.49,0,0,0,.541-.642l-.711-.31a.7.7,0,0,1-.637.426.672.672,0,0,1-.416-.138.892.892,0,0,1-.284-.381,1.441,1.441,0,0,1-.1-.554,1.348,1.348,0,0,1,.1-.536.874.874,0,0,1,.284-.368.687.687,0,0,1,.416-.134.666.666,0,0,1,.381.108.677.677,0,0,1,.248.319l.711-.31a1.357,1.357,0,0,0-1.292-.866A1.655,1.655,0,0,0,10.82,9.995ZM7.19,9.986a1.443,1.443,0,0,0-.56.626,2.439,2.439,0,0,0,0,1.917,1.453,1.453,0,0,0,.56.626,1.774,1.774,0,0,0,1.71,0,1.448,1.448,0,0,0,.56-.626,2.439,2.439,0,0,0,0-1.917,1.438,1.438,0,0,0-.56-.626,1.774,1.774,0,0,0-1.71,0ZM3.045,13.316H4.216a2.215,2.215,0,0,0,1-.211,1.481,1.481,0,0,0,.637-.606,1.881,1.881,0,0,0,.22-.928,1.957,1.957,0,0,0-.211-.929,1.443,1.443,0,0,0-.612-.6,2.055,2.055,0,0,0-.96-.211H3.045ZM14.153,8V.615H1.845V8ZM7.466,12.343a1.265,1.265,0,0,1-.213-.771,1.265,1.265,0,0,1,.213-.771.732.732,0,0,1,1.158,0,1.265,1.265,0,0,1,.213.771,1.265,1.265,0,0,1-.213.771.733.733,0,0,1-1.158,0Zm-3.621.223v-1.99h.409a.991.991,0,0,1,.739.266,1,1,0,0,1,.261.73.977.977,0,0,1-.272.73,1.051,1.051,0,0,1-.762.265ZM3.384,7.384a.307.307,0,1,1,0-.615h9.23a.307.307,0,1,1,0,.615Zm0-2.461a.308.308,0,1,1,0-.616h9.23a.308.308,0,0,1,0,.616Zm0-2.462a.308.308,0,0,1,0-.616h9.23a.308.308,0,0,1,0,.616Z" transform="translate(1003.001 657.4)"/></g></svg>