<svg xmlns="http://www.w3.org/2000/svg" width="20" height="20" viewBox="0 0 20 20"><defs><style>.a{fill:#fff;opacity:0;}.b{fill:#40a9ff;}</style></defs><g transform="translate(-740 -742)"><rect class="a" width="20" height="20" transform="translate(740 742)"/><path class="b" d="M15.047,2.981q-.739-.689-1.487-1.369l-.082-.074Q12.9,1.007,12.3.5q-.2-.172-.411-.329a1.132,1.132,0,0,0-.174-.108.454.454,0,0,0-.218-.05.434.434,0,0,0-.428.435V4.27h3.829l-.425-.425V16.6l.425-.425H3.833A1.273,1.273,0,0,1,2.557,14.9V.443L2.131.869H9.789a.425.425,0,1,0,0-.851H1.706V14.9a2.124,2.124,0,0,0,2.127,2.124H15.32V3.419H11.491l.425.425V.443a.417.417,0,0,1-.408.416.329.329,0,0,1-.162-.032s.013.009.041.03c.079.057.2.155.36.289.288.243.684.593,1.159,1.023l.081.073Q13.8,2.979,14.6,3.73a.425.425,0,0,0,.581-.62l-.138-.129ZM1.706,8.323H0V14.9H17.022V8.323H2.557V9.351L1.706,8.323h0ZM4.976,9.43H5.64v2.74A1.557,1.557,0,0,1,5.35,13.2a1.319,1.319,0,0,1-1.027.357,1.208,1.208,0,0,1-.93-.34,1.3,1.3,0,0,1-.323-.936v-.13h.664v.125c0,.465.2.7.6.7a.585.585,0,0,0,.488-.2,1.027,1.027,0,0,0,.153-.63Zm1.458,0H8.113c.976,0,1.469.414,1.469,1.242S9.089,11.926,8.1,11.926h-1V13.48H6.434V9.43ZM7.1,10v1.361h.964a1.082,1.082,0,0,0,.647-.159.633.633,0,0,0,.2-.528.6.6,0,0,0-.21-.516A1.035,1.035,0,0,0,8.062,10H7.1Zm4.81-.647a1.96,1.96,0,0,1,1.231.346,1.539,1.539,0,0,1,.545,1.015h-.669a.933.933,0,0,0-.363-.584,1.279,1.279,0,0,0-.743-.193,1.116,1.116,0,0,0-.9.386,1.66,1.66,0,0,0-.363,1.152,1.665,1.665,0,0,0,.323,1.1,1.356,1.356,0,0,0,1.089.408,2.106,2.106,0,0,0,.545-.068,1.879,1.879,0,0,0,.437-.187v-.834H11.965v-.567H13.7v1.713a2.343,2.343,0,0,1-.737.386,3.309,3.309,0,0,1-.981.136,1.889,1.889,0,0,1-1.5-.613,2.151,2.151,0,0,1-.5-1.475,2.222,2.222,0,0,1,.5-1.5A1.763,1.763,0,0,1,11.908,9.351Z" transform="translate(741.487 743.483)"/></g></svg>