<svg xmlns="http://www.w3.org/2000/svg" width="20" height="20" viewBox="0 0 20 20"><defs><style>.a{fill:#fff;opacity:0;}.b{fill:#eaa43a;}</style></defs><g transform="translate(-740 -742)"><rect class="a" width="20" height="20" transform="translate(740 742)"/><g transform="translate(643.838 711.322)"><path class="b" d="M114.028,37.308a2.262,2.262,0,0,0-.7-1.6c-1.006-1.018-2.023-2.024-3.04-3.031a2.723,2.723,0,0,0-1.37-.672H99.576a1.046,1.046,0,0,0-.728.728V48.9a.913.913,0,0,0,.931.739H113.1a.913.913,0,0,0,.934-.928Q114.034,43.012,114.028,37.308Zm-5.233-4.028c0-.183.13-.237.295-.16a4.439,4.439,0,0,1,.551.44c.988.985,1.952,2.031,2.941,3.015a1.187,1.187,0,0,1,.249.29c.081.175.189.43,0,.43h-2.006c-.551,0-1.35-.007-1.9,0-.148,0-.129-.285-.128-.43C108.8,35.764,108.794,34.382,108.795,33.28Zm4.119,14.941c0,.213.03.406-.179.406H100.32a.381.381,0,0,1-.381-.365c0-4.886-.034-9.936-.033-14.822,0-.194.075-.32.264-.32h4.82c.187,0,.188.173.188.367q0,.509,0,1.017l.026.026c.359,0,.718,0,1.077,0,.125,0,.169-.041.166-.166-.006-.3,0-.6,0-.895,0-.136-.027-.355.116-.351.288.009.728.009,1.016,0,.144,0,.248.025.248.16,0,1.275,0,2.753,0,4.028a.759.759,0,0,0,.635.865,1.531,1.531,0,0,0,.336,0h3.91c.22,0,.209.1.209.32C112.914,41.689,112.914,45.025,112.914,48.222Z" transform="translate(-0.124 -0.145)"/><path class="b" d="M309.561,178.184q-.149-.484-.3-.969l-.689-2.238a.632.632,0,0,0-.71-.521H307.4c-.2,0-.2,0-.2-.2,0-.333,0-.667,0-1l-.025-.026c-.368,0-.736,0-1.1,0-.109,0-.15.038-.148.148.005.234-.006.468,0,.7a2.112,2.112,0,0,1-.107.717c-.355,1.139-.7,2.281-1.051,3.422a1.641,1.641,0,0,0,.688,1.98,2.824,2.824,0,0,0,1.5.472,3.151,3.151,0,0,0,1.77-.372A1.675,1.675,0,0,0,309.561,178.184Zm-1.513,1.027a1.8,1.8,0,0,1-.886.18,1.772,1.772,0,0,1-.851-.168c-.181-.09-.366-.2-.363-.43a.367.367,0,0,1,.14-.287.558.558,0,0,1,.057-.043,1.05,1.05,0,0,1,.163-.085l.054-.023q.105-.042.214-.074l.107-.029c.036-.009.072-.016.107-.023a2.1,2.1,0,0,1,1.252.156c.178.078.343.2.345.411S308.221,179.123,308.048,179.212ZM307.2,168.27q0,.614,0,1.228l-.026.025c-.357,0-.714,0-1.07,0-.13,0-.187-.031-.183-.174.009-.317.007-.634,0-.952,0-.117.04-.156.155-.155.367,0,.734,0,1.1,0Z" transform="translate(-202.099 -133.781)"/><path class="b" d="M444.385,238.729c0,.127-.049.16-.167.158-.352-.005-.7,0-1.055,0l-.026-.026,0-1.228.026-.025c.357,0,.714.006,1.071,0,.116,0,.157.039.155.155C444.379,238.085,444.378,238.407,444.385,238.729Z" transform="translate(-338.061 -201.889)"/><path class="b" d="M375.083,306.974q0,.6,0,1.2l-.026.026c-.357,0-.714,0-1.07,0-.13,0-.187-.031-.183-.174.009-.307.007-.614,0-.922,0-.117.04-.156.155-.155.367,0,.734,0,1.1,0Z" transform="translate(-269.982 -269.977)"/><path class="b" d="M444.382,375.785c0,.115-.037.158-.154.156-.357,0-.714,0-1.072,0l-.025-.026q0-.615,0-1.231l.026-.026c.352,0,.7.007,1.057,0,.132,0,.172.043.17.172C444.376,375.15,444.377,375.468,444.382,375.785Z" transform="translate(-338.059 -336.466)"/></g></g></svg>