<svg xmlns="http://www.w3.org/2000/svg" width="20" height="20" viewBox="0 0 20 20"><defs><style>.a,.c{fill:#fff;}.a{opacity:0;}.b{fill:#3c97ff;}</style></defs><g transform="translate(-740 -742)"><rect class="a" width="20" height="20" transform="translate(740 742)"/><g transform="translate(687.446 743.221)"><path class="b" d="M174.491,3.113,172.345.883A3.29,3.29,0,0,0,170.293,0h-7.407a1.229,1.229,0,0,0-1.2,1.249V8.655h.975V1.225a.249.249,0,0,1,.242-.25h7.269a.292.292,0,0,1,.292.293V4.877h3.918c.017.091,0,11.457,0,11.457a.249.249,0,0,1-.242.249H162.887a.25.25,0,0,1-.241-.249v-1.7h-.962V16.31a1.229,1.229,0,0,0,1.2,1.249h11.253a1.228,1.228,0,0,0,1.2-1.249V5.654a4.8,4.8,0,0,0-.85-2.54Zm-3.052.79V1.6c.06.042,2.4,2.235,2.439,2.3h-2.439Z" transform="translate(-105.839)"/><path class="b" d="M70.319,431.158H54.788a.946.946,0,0,0-.632.234.763.763,0,0,0-.262.567V437.2a.851.851,0,0,0,.892.8H70.319a.851.851,0,0,0,.892-.8V431.96A.851.851,0,0,0,70.319,431.158Z" transform="translate(0 -422.709)"/><path class="c" d="M128.15,493.417h1.475v.735H127.27v-3.71h.881Zm-4.022.735-.915-3.024v3.024h-.729v-3.71h1.353l.651,2.22.685-2.22h1.358v3.71h-.875v-3.024l-.934,3.024h-.6Zm-2.16-3.71-1.014,1.723,1.146,1.987h-1l-.744-1.346-.745,1.346h-.823l1.149-1.977-1.018-1.732h1.012l.6,1.127.631-1.127h.81Z" transform="translate(-61.651 -480.425)"/></g></g></svg>