<svg xmlns="http://www.w3.org/2000/svg" width="18" height="18" viewBox="0 0 18 18"><defs><style>.a{opacity:0;}.b{fill:#66677c;}</style></defs><g transform="translate(-405.23 -101.23)"><rect class="a" width="18" height="18" transform="translate(405.23 101.23)"/><g transform="translate(263.772 22.65)"><path class="b" d="M154.669,80h-8.423A2.253,2.253,0,0,0,144,82.246V92.915a2.253,2.253,0,0,0,2.246,2.246h6.205a2.323,2.323,0,0,0,1.6-.646L156.27,92.3a2.226,2.226,0,0,0,.646-1.6V82.246A2.253,2.253,0,0,0,154.669,80Zm-9.546,12.915V82.246a1.126,1.126,0,0,1,1.123-1.123h8.423a1.126,1.126,0,0,1,1.123,1.123v8.142h-1.685a2.253,2.253,0,0,0-2.246,2.246v1.4h-5.615A1.126,1.126,0,0,1,145.123,92.915Zm8.114.786a1.544,1.544,0,0,1-.253.2V92.635a1.126,1.126,0,0,1,1.123-1.123h1.32Z"/><path class="b" d="M336.562,289.123h5.054a.562.562,0,0,0,0-1.123h-5.054a.562.562,0,1,0,0,1.123Zm2.246,4.492h-2.246a.562.562,0,1,0,0,1.123h2.246a.562.562,0,0,0,0-1.123Zm-2.246-1.685h5.054a.562.562,0,0,0,0-1.123h-5.054a.562.562,0,1,0,0,1.123Z" transform="translate(-188.631 -204.35)"/></g></g></svg>