<svg xmlns="http://www.w3.org/2000/svg" width="18" height="18" viewBox="0 0 18 18"><defs><style>.a{opacity:0;}.b{fill:#66677c;}</style></defs><g transform="translate(-405.23 -101.23)"><rect class="a" width="18" height="18" transform="translate(405.23 101.23)"/><path class="b" d="M75.475,118.857h-12.5a.975.975,0,0,0-.975.975v10.661a.976.976,0,0,0,.975.975h12.5a.976.976,0,0,0,.975-.975V119.831a.977.977,0,0,0-.975-.974Zm-.109,1.084v.973H63.082v-.973ZM63.082,130.384V122H75.365v8.387H63.082Zm7.869-7.328L68.4,129.818a.542.542,0,1,1-1.014-.383l2.546-6.762a.543.543,0,0,1,1.015.382ZM66.562,125.6l-1.056,1.056,1.056,1.056a.542.542,0,0,1-.766.767l-1.439-1.439a.541.541,0,0,1,0-.766l1.439-1.439a.542.542,0,0,1,.766.765Zm7.54-.464a.542.542,0,0,1,0,.767l-1.439,1.439a.542.542,0,1,1-.766-.767l1.056-1.056L71.9,124.461a.542.542,0,1,1,.767-.767Z" transform="translate(345.007 -14.933)"/></g></svg>