<svg xmlns="http://www.w3.org/2000/svg" width="18" height="18" viewBox="0 0 18 18"><defs><style>.a{opacity:0;}.b{fill:#66677c;}</style></defs><g transform="translate(-405.23 -101.23)"><rect class="a" width="18" height="18" transform="translate(405.23 101.23)"/><g transform="translate(407.236 103.239)"><path class="b" d="M6.463,2.227A2.992,2.992,0,1,0,2.231,6.459l1.4,1.4a.691.691,0,1,1-.976.977l-1.4-1.4A4.374,4.374,0,0,1,7.439,1.251l-.478.478.478-.478,1.4,1.4a.691.691,0,1,1-.976.977l-1.4-1.4ZM10.314,5.1a.691.691,0,0,1,.976,0l1.423,1.423A4.373,4.373,0,1,1,6.528,12.71L5.106,11.288a.691.691,0,1,1,.977-.977L7.5,11.733A2.992,2.992,0,1,0,11.737,7.5L10.314,6.079A.691.691,0,0,1,10.314,5.1Z" transform="translate(0 0)"/><path class="b" d="M369.949,369.963a.757.757,0,0,1,1.069,0l3.4,3.4a.757.757,0,0,1-1.07,1.071l-3.4-3.4a.757.757,0,0,1,0-1.071Z" transform="translate(-364.81 -364.829)"/></g></g></svg>