<svg xmlns="http://www.w3.org/2000/svg" width="18" height="18" viewBox="0 0 18 18"><defs><style>.a{opacity:0;}.b{fill:#66677c;}</style></defs><g transform="translate(-405.23 -101.23)"><rect class="a" width="18" height="18" transform="translate(405.23 101.23)"/><path class="b" d="M14.027,11.993a5.064,5.064,0,0,0-2.957-4.7,3.442,3.442,0,0,0,1.39-2.8,3.325,3.325,0,0,0-2.413-3.281.052.052,0,0,0-.036,0,.419.419,0,0,0-.046-.005.557.557,0,0,0-.536.576.563.563,0,0,0,.452.567.93.93,0,0,0,.108.036,2.182,2.182,0,0,1,1.376,2.073A2.15,2.15,0,0,1,9.7,6.611l0,0a.65.65,0,0,0,.013,1.291s0,0,.007.005a3.88,3.88,0,0,1,3.248,4.081.529.529,0,1,0,1.056.022l0-.008v-.013ZM7.693,7.387A4.117,4.117,0,0,0,9.354,4.035,3.9,3.9,0,0,0,5.613,0a3.9,3.9,0,0,0-3.74,4.035A4.116,4.116,0,0,0,3.535,7.387,6.068,6.068,0,0,0,0,13.012c0,.144.008.286.018.425h0A.544.544,0,0,0,.541,14a.544.544,0,0,0,.522-.563.517.517,0,0,0-.005-.052q-.017-.188-.018-.376A4.767,4.767,0,0,1,5.616,8.074a4.767,4.767,0,0,1,4.577,4.935c0,.132-.009.262-.018.388l0,.02v.018h0a.52.52,0,1,0,1.04,0c.011-.14.018-.282.018-.426a6.075,6.075,0,0,0-3.54-5.622ZM5.614,6.932a2.8,2.8,0,0,1-2.687-2.9,2.8,2.8,0,0,1,2.687-2.9A2.8,2.8,0,0,1,8.3,4.034a2.8,2.8,0,0,1-2.687,2.9Z" transform="translate(407.217 103.23)"/></g></svg>