<svg xmlns="http://www.w3.org/2000/svg" width="18" height="18" viewBox="0 0 18 18"><defs><style>.a{opacity:0;}.b{fill:#66677c;}</style></defs><g transform="translate(-405.23 -101.23)"><rect class="a" width="18" height="18" transform="translate(405.23 101.23)"/><path class="b" d="M126.473,69.579a4.179,4.179,0,1,0-6.444,3.507,6.138,6.138,0,0,0-1.256.671,6.267,6.267,0,0,0-1.409,1.348,6.148,6.148,0,0,0-1.264,3.741.554.554,0,1,0,1.107,0,5.092,5.092,0,0,1,5.086-5.086A4.185,4.185,0,0,0,126.473,69.579Zm-4.181,3.072a3.072,3.072,0,1,1,3.072-3.072A3.075,3.075,0,0,1,122.292,72.651Zm3.757,1.272a.553.553,0,0,0-.673.879,5.05,5.05,0,0,1,2,4.045.554.554,0,1,0,1.107,0A6.153,6.153,0,0,0,126.049,73.923Z" transform="translate(291.938 37.83)"/></g></svg>