<svg xmlns="http://www.w3.org/2000/svg" width="18" height="18" viewBox="0 0 18 18"><defs><style>.a{opacity:0;}.b{fill:#66677c;}</style></defs><g transform="translate(-405.23 -101.23)"><rect class="a" width="18" height="18" transform="translate(405.23 101.23)"/><path class="b" d="M2,1A1,1,0,0,0,1,2V12a1,1,0,0,0,1,1H12a1,1,0,0,0,1-1V2a1,1,0,0,0-1-1ZM5,4H6.5a.5.5,0,0,0,0-1h-4a.5.5,0,1,0,0,1H4V6.5a.5.5,0,0,0,1,0ZM2,0H12a2,2,0,0,1,2,2V12a2,2,0,0,1-2,2H2a2,2,0,0,1-2-2V2A2,2,0,0,1,2,0ZM8.5,3a.5.5,0,0,0,0,1h3a.5.5,0,0,0,0-1Zm0,3a.5.5,0,0,0,0,1h3a.5.5,0,0,0,0-1Zm-6,2a.5.5,0,1,0,0,1h9a.5.5,0,0,0,0-1Zm0,2a.5.5,0,1,0,0,1h9a.5.5,0,0,0,0-1Z" transform="translate(407.23 103.23)"/></g></svg>