<svg xmlns="http://www.w3.org/2000/svg" width="18" height="18" viewBox="0 0 18 18"><defs><style>.a{opacity:0;}.b{fill:#66677c;}</style></defs><g transform="translate(-405.23 -101.23)"><rect class="a" width="18" height="18" transform="translate(405.23 101.23)"/><g transform="translate(511.017 -170.984)"><path class="b" d="M320,320m.615,0h4.92a.544.544,0,0,1,.615.615h0a.544.544,0,0,1-.615.615h-4.92a.544.544,0,0,1-.615-.615h0A.544.544,0,0,1,320.615,320Z" transform="translate(-419.86 -41.86)"/><path class="b" d="M474.83,358.4m0,.615v4.92a.544.544,0,0,1-.615.615h0a.544.544,0,0,1-.615-.615v-4.92a.544.544,0,0,1,.615-.615h0A.544.544,0,0,1,474.83,359.015Z" transform="translate(-571 -79.645)"/><path class="b" d="M101.489,89.6H91.24a1.64,1.64,0,0,0-1.64,1.64v10.249a1.64,1.64,0,0,0,1.64,1.64h10.249a1.64,1.64,0,0,0,1.64-1.64V91.24A1.64,1.64,0,0,0,101.489,89.6ZM91.24,90.716h10.249a.63.63,0,0,1,.52.524v10.249a.67.67,0,0,1-.52.561H91.24a.673.673,0,0,1-.523-.561V91.24A.633.633,0,0,1,91.24,90.716Z" transform="translate(-193.15 184.85)"/></g></g></svg>