<svg xmlns="http://www.w3.org/2000/svg" width="16" height="16" viewBox="0 0 16 16"><defs><style>.a{opacity:0;}.b{fill:#1890ff;}</style></defs><g transform="translate(-405.23 -101.23)"><rect class="a" width="16" height="16" transform="translate(405.23 101.23)"/><path class="b" d="M267.337,261.96h-4.125v-4.281c0-.622-.163-1.162-.661-1.153s-.58.531-.58,1.153v4.281h-4.2c-.62,0-1.11.155-1.122.658s.5.678,1.122.678h4.2V267.6c0,.622.079,1.017.58,1.027s.661-.4.661-1.027V263.3h4.125c.62,0,1.124-.168,1.122-.678s-.5-.658-1.122-.658Z" transform="translate(150.679 -153.364)"/></g></svg>